<svg width="37" height="21" viewBox="0 0 37 21" fill="none" xmlns="http://www.w3.org/2000/svg">
<path d="M6.73004 3.79799C6.73004 3.79799 11.2717 3.31495 14.2531 6.04608C13.4614 7.66795 12.8821 9.42318 12.9609 10.9998C13.1138 14.0581 15.788 17.7422 17.1759 19.4445C15.9811 19.0297 12.2929 17.5933 9.89271 15.0759C7.84454 12.9275 7.71138 8.87108 7.45704 6.25574C7.31471 4.7925 6.73004 3.79799 6.73004 3.79799Z" fill="white"/>
<path d="M0 11.9312C0 11.9312 3.56307 9.2845 7.47142 10.0916C7.62907 11.7491 8.01869 13.401 8.83459 14.6307C10.4504 17.0658 15.1333 18.913 17.1759 19.7092C15.6762 19.9938 11.5606 20.4083 8.58141 19.6216C5.77502 18.8806 3.52986 15.6297 1.94464 13.6169C1.06089 12.4949 0.00714796 11.9349 0 11.9312Z" fill="white"/>
<path d="M37 11.9342C36.9932 11.929 33.7449 9.33796 29.8726 10.0918C29.666 11.8109 29.2047 13.7161 28.31 14.9664C26.5744 17.3916 22.1999 19.0022 20.1685 19.706C21.3641 19.9593 25.3839 20.689 28.6725 19.8206C31.4788 19.0795 33.7241 15.8286 35.3093 13.816C36.1962 12.6899 37 11.9342 37 11.9342Z" fill="white"/>
<path d="M30.6546 3.79839C30.6546 3.79839 26.1137 3.31533 23.1324 6.04568C23.9241 7.66762 24.5025 9.42351 24.4237 11.0002C24.2707 14.0588 21.5563 17.7361 20.1685 19.4381C21.3625 19.0237 25.0912 17.5942 27.4919 15.0763C29.5402 12.928 29.6732 8.87152 29.9276 6.25614C30.0699 4.79282 30.6546 3.79839 30.6546 3.79839Z" fill="white"/>
<path d="M13.4667 11.1122C13.2388 6.55315 18.5138 0.5 18.5138 0.5C18.5138 0.5 24.224 6.48471 23.9815 11.1122C23.7612 15.318 18.5138 20.5 18.5138 20.5C18.5138 20.5 13.6732 15.2425 13.4667 11.1122Z" fill="white"/>
</svg>
