<svg width="161" height="25" viewBox="0 0 161 25" fill="none" xmlns="http://www.w3.org/2000/svg">
<path d="M8.00329 4.45759C8.00329 4.45759 13.4042 3.87794 16.9496 7.15529C16.0082 9.10154 15.3192 11.2078 15.413 13.0998C15.5948 16.7698 18.7749 21.1907 20.4254 23.2334C19.0045 22.7356 14.6186 21.0119 11.7643 17.9911C9.32864 15.413 9.17029 10.5453 8.86784 7.40689C8.69857 5.651 8.00329 4.45759 8.00329 4.45759Z" fill="white"/>
<path d="M0 14.2174C0 14.2174 4.23717 11.0414 8.88493 12.0099C9.0724 13.9989 9.53574 15.9812 10.506 17.4568C12.4275 20.3789 17.9964 22.5956 20.4254 23.551C18.642 23.8925 13.7478 24.3899 10.2049 23.4459C6.8676 22.5567 4.19767 18.6556 2.31255 16.2403C1.2616 14.8938 0.00850027 14.2219 0 14.2174Z" fill="white"/>
<path d="M44 14.221C43.9919 14.2148 40.1291 11.1056 35.5241 12.0102C35.2785 14.073 34.7299 16.3593 33.6659 17.8597C31.602 20.7699 26.3999 22.7027 23.9841 23.5472C25.4059 23.8512 30.1862 24.7268 34.097 23.6848C37.4343 22.7954 40.1043 18.8944 41.9894 16.4792C43.0441 15.1279 44 14.221 44 14.221Z" fill="white"/>
<path d="M36.4541 4.45807C36.4541 4.45807 31.0541 3.87839 27.5087 7.15482C28.4503 9.10114 29.1382 11.2082 29.0444 13.1003C28.8625 16.7706 25.6345 21.1833 23.9841 23.2258C25.4041 22.7284 29.8382 21.0131 32.6931 17.9916C35.1288 15.4136 35.2871 10.5458 35.5896 7.40737C35.7588 5.65138 36.4541 4.45807 36.4541 4.45807Z" fill="white"/>
<path d="M16.0145 13.2347C15.7434 7.76378 22.0165 0.5 22.0165 0.5C22.0165 0.5 28.8069 7.68165 28.5186 13.2347C28.2565 18.2817 22.0165 24.5 22.0165 24.5C22.0165 24.5 16.26 18.191 16.0145 13.2347Z" fill="white"/>
<path d="M49.2109 20V5.44922H51.7891V11.4551H58.498V5.44922H61.0859V20H58.498V13.6914H51.7891V20H49.2109ZM67.6 20.2344C66.5844 20.2344 65.6957 20.0098 64.934 19.5605C64.1723 19.1048 63.5766 18.4733 63.1469 17.666C62.7237 16.8587 62.5121 15.9212 62.5121 14.8535C62.5121 13.7858 62.7237 12.8483 63.1469 12.041C63.5766 11.2272 64.1723 10.5924 64.934 10.1367C65.6957 9.68099 66.5844 9.45312 67.6 9.45312C68.6091 9.45312 69.4945 9.68099 70.2563 10.1367C71.0245 10.5924 71.6202 11.2272 72.0434 12.041C72.473 12.8483 72.6879 13.7858 72.6879 14.8535C72.6879 15.9212 72.473 16.8587 72.0434 17.666C71.6202 18.4733 71.0245 19.1048 70.2563 19.5605C69.4945 20.0098 68.6091 20.2344 67.6 20.2344ZM67.6 18.1738C68.3878 18.1738 69.016 17.8776 69.4848 17.2852C69.9535 16.6927 70.1879 15.8822 70.1879 14.8535C70.1879 13.8249 69.9535 13.0111 69.4848 12.4121C69.016 11.8132 68.3878 11.5137 67.6 11.5137C66.8057 11.5137 66.1742 11.8132 65.7055 12.4121C65.2367 13.0046 65.0023 13.8184 65.0023 14.8535C65.0023 15.8822 65.2367 16.6927 65.7055 17.2852C66.1742 17.8776 66.8057 18.1738 67.6 18.1738ZM76.4578 5.44922V20H73.9969V5.44922H76.4578ZM78.2453 20V9.6875H80.7062V20H78.2453ZM79.4758 8.1543C79.0526 8.1543 78.701 8.02083 78.4211 7.75391C78.1411 7.48047 78.0012 7.14518 78.0012 6.74805C78.0012 6.35091 78.1411 6.01888 78.4211 5.75195C78.701 5.48503 79.0526 5.35156 79.4758 5.35156C79.8924 5.35156 80.2408 5.48503 80.5207 5.75195C80.8007 6.01888 80.9406 6.35091 80.9406 6.74805C80.9406 7.14518 80.8007 7.48047 80.5207 7.75391C80.2408 8.02083 79.8924 8.1543 79.4758 8.1543ZM86.5367 20.2441C85.2802 20.2441 84.2288 19.9512 83.3824 19.3652C82.5426 18.7728 82.0836 17.9232 82.0055 16.8164H84.4371C84.4892 17.3177 84.691 17.7083 85.0426 17.9883C85.3941 18.2617 85.8792 18.3984 86.4977 18.3984C87.0901 18.3984 87.5556 18.2812 87.8941 18.0469C88.2392 17.8125 88.4117 17.513 88.4117 17.1484C88.4117 16.8359 88.2848 16.5853 88.0309 16.3965C87.777 16.2077 87.4352 16.0677 87.0055 15.9766L85.2477 15.6152C83.2424 15.1986 82.2398 14.2057 82.2398 12.6367C82.2398 11.6862 82.6174 10.9212 83.3727 10.3418C84.1279 9.75586 85.1337 9.46289 86.3902 9.46289C87.6402 9.46289 88.6559 9.77214 89.4371 10.3906C90.2249 11.0026 90.6318 11.8392 90.6578 12.9004H88.3434C88.3303 12.4382 88.1513 12.0573 87.8063 11.7578C87.4612 11.4583 87.0087 11.3086 86.4488 11.3086C85.9085 11.3086 85.482 11.429 85.1695 11.6699C84.857 11.9108 84.7008 12.207 84.7008 12.5586C84.7008 12.8646 84.8212 13.1152 85.0621 13.3105C85.303 13.4993 85.6383 13.6426 86.068 13.7402L87.9234 14.1211C88.9456 14.3359 89.6975 14.6745 90.1793 15.1367C90.6676 15.599 90.9117 16.2077 90.9117 16.9629C90.9117 17.6335 90.7229 18.2161 90.3453 18.7109C89.9742 19.1992 89.4599 19.5768 88.8023 19.8438C88.1448 20.1107 87.3896 20.2441 86.5367 20.2441ZM96.7617 9.6875V11.6699H94.6523V17.041C94.6523 17.4121 94.7272 17.6693 94.877 17.8125C95.0267 17.9492 95.3034 18.0176 95.707 18.0176H96.7617V20H95.2773C94.2227 20 93.4447 19.7884 92.9434 19.3652C92.4421 18.9421 92.1914 18.2878 92.1914 17.4023V6.875H94.6523V9.6875H96.7617ZM97.9047 20V9.6875H100.366V20H97.9047ZM99.1352 8.1543C98.712 8.1543 98.3604 8.02083 98.0805 7.75391C97.8005 7.48047 97.6605 7.14518 97.6605 6.74805C97.6605 6.35091 97.8005 6.01888 98.0805 5.75195C98.3604 5.48503 98.712 5.35156 99.1352 5.35156C99.5518 5.35156 99.9001 5.48503 100.18 5.75195C100.46 6.01888 100.6 6.35091 100.6 6.74805C100.6 7.14518 100.46 7.48047 100.18 7.75391C99.9001 8.02083 99.5518 8.1543 99.1352 8.1543ZM106.714 20.2344C105.711 20.2344 104.829 20.0065 104.067 19.5508C103.312 19.0951 102.723 18.4635 102.3 17.6562C101.883 16.849 101.675 15.9147 101.675 14.8535C101.675 13.7923 101.883 12.8581 102.3 12.0508C102.723 11.237 103.312 10.6022 104.067 10.1465C104.829 9.68424 105.711 9.45312 106.714 9.45312C107.58 9.45312 108.351 9.6224 109.028 9.96094C109.705 10.293 110.249 10.7552 110.659 11.3477C111.076 11.9336 111.32 12.6107 111.391 13.3789H108.979C108.888 12.8255 108.651 12.3763 108.266 12.0312C107.889 11.6797 107.381 11.5039 106.743 11.5039C105.936 11.5039 105.304 11.8066 104.848 12.4121C104.393 13.0176 104.165 13.8314 104.165 14.8535C104.165 15.8691 104.393 16.6797 104.848 17.2852C105.304 17.8841 105.936 18.1836 106.743 18.1836C107.388 18.1836 107.889 18.0143 108.247 17.6758C108.605 17.3307 108.843 16.8717 108.96 16.2988H111.391C111.333 17.054 111.095 17.7279 110.679 18.3203C110.268 18.9128 109.721 19.3815 109.038 19.7266C108.361 20.0651 107.586 20.2344 106.714 20.2344ZM121.187 20V14.375L115.816 5.44922H118.785L121.412 9.93164C121.594 10.2441 121.773 10.5599 121.949 10.8789C122.125 11.1914 122.3 11.5072 122.476 11.8262C122.645 11.5072 122.815 11.1914 122.984 10.8789C123.16 10.5599 123.339 10.2441 123.521 9.93164L126.089 5.44922H129.048L123.726 14.375V20H121.187ZM132.242 20.2344C131.227 20.2344 130.338 20.0098 129.576 19.5605C128.814 19.1048 128.219 18.4733 127.789 17.666C127.366 16.8587 127.154 15.9212 127.154 14.8535C127.154 13.7858 127.366 12.8483 127.789 12.041C128.219 11.2272 128.814 10.5924 129.576 10.1367C130.338 9.68099 131.227 9.45312 132.242 9.45312C133.251 9.45312 134.137 9.68099 134.898 10.1367C135.667 10.5924 136.262 11.2272 136.686 12.041C137.115 12.8483 137.33 13.7858 137.33 14.8535C137.33 15.9212 137.115 16.8587 136.686 17.666C136.262 18.4733 135.667 19.1048 134.898 19.5605C134.137 20.0098 133.251 20.2344 132.242 20.2344ZM132.242 18.1738C133.03 18.1738 133.658 17.8776 134.127 17.2852C134.596 16.6927 134.83 15.8822 134.83 14.8535C134.83 13.8249 134.596 13.0111 134.127 12.4121C133.658 11.8132 133.03 11.5137 132.242 11.5137C131.448 11.5137 130.816 11.8132 130.348 12.4121C129.879 13.0046 129.645 13.8184 129.645 14.8535C129.645 15.8822 129.879 16.6927 130.348 17.2852C130.816 17.8776 131.448 18.1738 132.242 18.1738ZM143.317 24.2188C141.956 24.2188 140.875 23.9258 140.075 23.3398C139.274 22.7539 138.805 21.9596 138.668 20.957H141.08C141.198 21.3997 141.455 21.735 141.852 21.9629C142.249 22.1973 142.737 22.3145 143.317 22.3145C144.085 22.3145 144.681 22.1061 145.104 21.6895C145.534 21.2728 145.748 20.6706 145.748 19.8828V18.3105H145.739C145.407 18.916 144.974 19.362 144.44 19.6484C143.906 19.9284 143.301 20.0684 142.623 20.0684C141.725 20.0684 140.94 19.8438 140.27 19.3945C139.599 18.9453 139.079 18.3268 138.707 17.5391C138.343 16.7448 138.161 15.8301 138.161 14.7949C138.161 13.7533 138.346 12.832 138.717 12.0312C139.088 11.2305 139.609 10.6055 140.28 10.1562C140.95 9.70703 141.725 9.48242 142.604 9.48242C143.274 9.48242 143.88 9.62565 144.42 9.91211C144.967 10.1921 145.41 10.6283 145.748 11.2207H145.758V9.6875H148.19V19.7363C148.19 20.7975 147.978 21.6569 147.555 22.3145C147.132 22.9785 146.552 23.4603 145.817 23.7598C145.081 24.0658 144.248 24.2188 143.317 24.2188ZM143.2 18.0371C144.007 18.0371 144.651 17.7409 145.133 17.1484C145.621 16.5495 145.866 15.7552 145.866 14.7656C145.866 13.776 145.621 12.985 145.133 12.3926C144.651 11.7936 144.007 11.4941 143.2 11.4941C142.438 11.4941 141.823 11.7773 141.354 12.3438C140.885 12.9102 140.651 13.7174 140.651 14.7656C140.651 15.8203 140.885 16.6309 141.354 17.1973C141.823 17.7572 142.438 18.0371 143.2 18.0371ZM153.962 20.2051C153.063 20.2051 152.279 19.9805 151.608 19.5312C150.938 19.082 150.417 18.457 150.046 17.6562C149.681 16.849 149.499 15.9082 149.499 14.834C149.499 13.7793 149.684 12.8516 150.055 12.0508C150.427 11.2435 150.947 10.6152 151.618 10.166C152.289 9.71029 153.063 9.48242 153.942 9.48242C154.613 9.48242 155.221 9.61914 155.768 9.89258C156.315 10.166 156.748 10.5762 157.067 11.123H157.106V9.6875H159.518V20H157.106V18.4473H157.077C156.751 19.0332 156.318 19.4727 155.778 19.7656C155.238 20.0586 154.632 20.2051 153.962 20.2051ZM154.538 18.1445C155.345 18.1445 155.99 17.8451 156.471 17.2461C156.96 16.6406 157.204 15.8366 157.204 14.834C157.204 13.8314 156.96 13.0306 156.471 12.4316C155.99 11.8262 155.345 11.5234 154.538 11.5234C153.776 11.5234 153.161 11.8099 152.692 12.3828C152.223 12.9557 151.989 13.7728 151.989 14.834C151.989 15.9017 152.223 16.722 152.692 17.2949C153.161 17.8613 153.776 18.1445 154.538 18.1445Z" fill="white"/>
</svg>
